<svg id="Capa_1" data-name="Capa 1" xmlns="http://www.w3.org/2000/svg" viewBox="0 0 500 500"><defs><style>.cls-1{fill:#fdfffc;}</style></defs><path class="cls-1" d="M177.47,141.78a130.36,130.36,0,0,1,27.71,2.7,60.14,60.14,0,0,1,21.46,8.76,41.08,41.08,0,0,1,13.87,16.21c3.24,6.67,4.86,15,4.86,24.92q0,16-7.28,26.77c-4.89,7.13-12.08,13-21.68,17.52,13.08,3.76,22.76,10.38,29.18,19.79s9.61,20.81,9.61,34.1q0,16.15-6.18,27.85a54.29,54.29,0,0,1-16.81,19.24,73.87,73.87,0,0,1-24.17,11,107.77,107.77,0,0,1-27.76,3.58H77.3V141.78Zm-6.05,85.83c8.29,0,15.15-2,20.58-6s8-10.41,8-19.31c0-5-.86-9-2.61-12.2a19.31,19.31,0,0,0-7.2-7.39,29.3,29.3,0,0,0-10.3-3.73,62.34,62.34,0,0,0-12-1.05H124.09v49.64ZM174,318.05a59.55,59.55,0,0,0,13.12-1.34,31,31,0,0,0,11-4.5,22.5,22.5,0,0,0,7.6-8.48c1.89-3.56,2.8-8.18,2.8-13.77,0-10.95-3.08-18.72-9.21-23.45s-14.32-7-24.39-7H124.09v58.5Z"/><path class="cls-1" d="M321.88,317.34c6.33,6.18,15.48,9.29,27.33,9.29,8.52,0,15.89-2.15,22.06-6.45s9.85-8.87,11.29-13.63h37.21c-6,18.51-15,31.73-27.43,39.69-12.23,8-27.16,12-44.54,12A88.73,88.73,0,0,1,315,352.39a69.76,69.76,0,0,1-24.84-16.54,75.74,75.74,0,0,1-15.62-25.64A94,94,0,0,1,269,277.42a90.28,90.28,0,0,1,5.68-32.18,75.61,75.61,0,0,1,16.11-25.78,76.55,76.55,0,0,1,24.93-17.15,80,80,0,0,1,32.08-6.26c13,0,24.41,2.51,34.18,7.61a68.05,68.05,0,0,1,24,20.39,83.43,83.43,0,0,1,13.52,29.2,109.21,109.21,0,0,1,2.94,34.23h-111C311.42,299.65,315.53,311.17,321.88,317.34Zm48.55-80.82c-5-5.55-13.53-8.56-23.9-8.56-6.75,0-12.34,1.13-16.81,3.45a33.88,33.88,0,0,0-10.7,8.47,30.28,30.28,0,0,0-5.67,10.85,48.64,48.64,0,0,0-1.93,10.13h68.75C379.16,250.09,375.47,242.12,370.43,236.52Z"/><rect class="cls-1" x="302.78" y="156.03" width="86.12" height="20.97"/></svg>