<svg id="Capa_1" data-name="Capa 1" xmlns="http://www.w3.org/2000/svg" viewBox="0 0 500 500"><defs><style>.cls-1{fill:#fdfffc;}</style></defs><path class="cls-1" d="M308.4,179.09A12.94,12.94,0,1,0,321.33,192,12.93,12.93,0,0,0,308.4,179.09Z"/><path class="cls-1" d="M250.91,195.68A54.33,54.33,0,1,0,305.23,250,54.38,54.38,0,0,0,250.91,195.68Zm0,89.12A34.8,34.8,0,1,1,285.7,250,34.84,34.84,0,0,1,250.91,284.8Z"/><path class="cls-1" d="M294,360.3H206A66.34,66.34,0,0,1,139.7,294V206A66.34,66.34,0,0,1,206,139.7H294A66.34,66.34,0,0,1,360.3,206V294A66.34,66.34,0,0,1,294,360.3ZM206,160.46a45.55,45.55,0,0,0-45.5,45.5V294a45.55,45.55,0,0,0,45.5,45.5H294A45.55,45.55,0,0,0,339.54,294V206A45.55,45.55,0,0,0,294,160.46Z"/></svg>