<svg id="Capa_1" data-name="Capa 1" xmlns="http://www.w3.org/2000/svg" viewBox="0 0 500 500"><defs><style>.cls-1{fill:#fdfffc;}</style></defs><path class="cls-1" d="M262.28,231.78c3.26-3.66,5.94-7.38,9.29-10.53a51,51,0,0,1,36.66-14.47c7.81.06,15.53.63,23.06,2.8,17.22,5,27.22,16.84,32,33.66,3.58,12.61,4.24,25.56,4.26,38.55,0,27.4-.07,54.81,0,82.21,0,2.57-.72,3.24-3.24,3.22q-21.18-.18-42.36,0c-2.48,0-3-.74-3-3.09q.12-39.12,0-78.23c0-6.53-.43-13.06-2.27-19.42-3.37-11.7-11.75-17.66-24-17-16.74.88-25.45,9.17-27.58,26.19a98.17,98.17,0,0,0-.75,12.23c0,25.36,0,50.72.07,76.08,0,2.53-.63,3.28-3.21,3.25q-21.33-.18-42.66,0c-2.28,0-2.94-.6-2.94-2.9q.1-75.31,0-150.62c0-2.49.81-3.06,3.16-3q20.26.15,40.51,0c2.49,0,3.13.78,3.08,3.13C262.19,219.77,262.28,225.77,262.28,231.78Z"/><path class="cls-1" d="M184.93,289.16c0,24.83,0,49.67.06,74.51,0,2.76-.68,3.6-3.54,3.56-14.11-.15-28.22-.12-42.33,0-2.26,0-3-.55-2.94-2.88q.1-75.43,0-150.87c0-2.08.5-2.83,2.71-2.81,14.32.09,28.64.12,42.95,0,2.75,0,3.13,1,3.12,3.4C184.9,239.07,184.93,264.11,184.93,289.16Z"/><path class="cls-1" d="M188.82,160.81a28.19,28.19,0,1,1-28.14-28A28.27,28.27,0,0,1,188.82,160.81Z"/></svg>